The Road (2009) DVDRip XviD-MAX 

Format                           : AVI
Format/Info                      : Audio Video Interleave
File size                        : 900 MiB
Duration                         : 1h 47mn
Overall bit rate                 : 1 173 Kbps
Writing application              : VirtualDubMod 1.5.10.2 (build 2542/release)
Writing library                  : VirtualDubMod build 2542/release
Original source form             : MAX TORRENTZ
Copyright                        : SIGISMUNT

Video
ID                               : 0
Format                           : MPEG-4 Visual
Format settings, BVOP            : No
Format settings, QPel            : No
Format settings, GMC             : No warppoints
Format settings, Matrix          : Default (H.263)
Codec ID                         : DX50
Codec ID/Hint                    : DivX 5
Duration                         : 1h 47mn
Bit rate                         : 780 Kbps
Width                            : 700 pixels
Height                           : 320 pixels
Display aspect ratio             : 2.2:1
Frame rate                       : 23.976 fps
Resolution                       : 24 bits
Colorimetry                      : 4:2:0
Scan type                        : Progressive
Bits/(Pixel*Frame)               : 0.145
Stream size                      : 599 MiB (66%)
Writing library                  : DivX 5.2.1 (DrDivX 106) (UTC 2004-09-08)

Audio
ID                               : 1
Format                           : AC-3
Format/Info                      : Audio Coding 3
Codec ID                         : 2000
Duration                         : 1h 47mn
Bit rate mode                    : Constant
Bit rate                         : 384 Kbps
Channel(s)                       : 6 channels
Channel positions                : Front: L C R, Surround: L R, LFE
Sampling rate                    : 48.0 KHz
Stream size                      : 295 MiB (33%)
Alignment                        : Split accross interleaves
Interleave, duration             : 42 ms (1.00 video frame)
Interleave, preload duration     : 500 ms

SOURCES: Original DVD (video adjusted , much brightness and contrasted) + ViSiON AC3 audiosource perfectly synced)  
http://www.imdb.com/title/tt0898367/

Screens: 
http://www.postimg.com/image/13000/12073.jpg 
http://www.postimg.com/image/13000/12074.jpg 
http://www.postimg.com/image/13000/12075.jpg 
http://www.postimg.com/image/13000/12076.jpg 
http://www.postimg.com/image/13000/12077.jpg

ScreenCaps: 
http://www.postimg.com/image/13000/12078.jpg

The Road (2009) DVDRip XviD-MAX Torrent Free Download 
http://thepiratebay.org/user/extremezone/0/7